<svg xmlns="http://www.w3.org/2000/svg" viewBox="0 0 800 500" fill="none">
  <rect width="800" height="500" fill="#FAFAFA"/>
  <rect x="24" y="24" width="752" height="452" stroke="#0A0A0A" stroke-width="1"/>
  <text x="40" y="52" fill="#71717A" font-family="ui-monospace, monospace" font-size="11" letter-spacing="3">WARDROBE GRID · CONCEPT</text>
  <g stroke="#D4D4D8" stroke-width="1">
    <rect x="40" y="72" width="150" height="180" fill="#FFFFFF"/>
    <rect x="206" y="72" width="150" height="180" fill="#FFFFFF"/>
    <rect x="372" y="72" width="150" height="180" fill="#FFFFFF"/>
    <rect x="538" y="72" width="150" height="180" fill="#FFFFFF"/>
    <rect x="704" y="72" width="56" height="180" fill="#F4F4F5"/>
    <rect x="40" y="266" width="150" height="180" fill="#FFFFFF"/>
    <rect x="206" y="266" width="150" height="180" fill="#FFFFFF"/>
    <rect x="372" y="266" width="150" height="180" fill="#FFFFFF"/>
    <rect x="538" y="266" width="150" height="180" fill="#FFFFFF"/>
  </g>
  <rect x="56" y="96" width="118" height="132" fill="#E4E4E7"/>
  <rect x="222" y="96" width="118" height="132" fill="#D4D4D8"/>
  <rect x="388" y="96" width="118" height="132" fill="#E4E4E7"/>
  <rect x="554" y="96" width="118" height="132" fill="#D4D4D8"/>
  <rect x="40" y="462" width="220" height="1" fill="#0A0A0A"/>
  <text x="40" y="448" fill="#0A0A0A" font-family="system-ui, sans-serif" font-size="13">Search pieces · Combine · Filter</text>
</svg>
